<?xml version="1.0" encoding="UTF-8"?>
<svg version="1.1" xmlns="http://www.w3.org/2000/svg" width="500" height="500">
<path d="M0 0 C165 0 330 0 500 0 C500 165 500 330 500 500 C335 500 170 500 0 500 C0 335 0 170 0 0 Z " fill="#FEFEFE" transform="translate(0,0)"/>
<path d="M0 0 C1.9385939 0.00666183 1.9385939 0.00666183 3.91635132 0.01345825 C4.62865402 0.0131662 5.34095673 0.01287415 6.07484436 0.01257324 C8.43408301 0.01396888 10.79300755 0.02954076 13.15219116 0.04519653 C14.78600899 0.04892584 16.41982904 0.0517732 18.0536499 0.05377197 C22.35765742 0.06141493 26.66153035 0.08106904 30.96548462 0.10317993 C36.12748432 0.12721746 41.28952898 0.13641619 46.4515686 0.14808655 C54.29718228 0.16749313 62.14250054 0.20581092 69.98812866 0.24050903 C69.98812866 11.13050903 69.98812866 22.02050903 69.98812866 33.24050903 C56.78812866 33.24050903 43.58812866 33.24050903 29.98812866 33.24050903 C29.98812866 41.49050903 29.98812866 49.74050903 29.98812866 58.24050903 C33.92363647 58.20570435 37.85914429 58.17089966 41.91390991 58.13504028 C45.71655552 58.11165836 49.51919319 58.09343394 53.3218689 58.07571411 C55.96904065 58.06060784 58.6161873 58.04012173 61.26327515 58.01419067 C65.06354968 57.97788912 68.86349392 57.96080101 72.66390991 57.94754028 C74.44527092 57.9243145 74.44527092 57.9243145 76.26261902 57.90061951 C77.36353378 57.90039291 78.46444855 57.90016632 79.59872437 57.89993286 C80.56913162 57.89327103 81.53953888 57.88660919 82.53935242 57.87974548 C84.98812866 58.24050903 84.98812866 58.24050903 86.80169678 59.58184814 C88.65218359 62.16887412 88.35958346 64.44974355 88.35140991 67.58816528 C88.35044312 69.45505005 88.35044312 69.45505005 88.34945679 71.35964966 C88.33334351 72.66095825 88.31723022 73.96226685 88.30062866 75.30300903 C88.30385132 76.60818481 88.30707397 77.9133606 88.31039429 79.25808716 C88.25499193 88.97364576 88.25499193 88.97364576 85.98812866 91.24050903 C83.60531616 91.43582153 83.60531616 91.43582153 80.86312866 91.36550903 C79.25437866 91.32425903 77.64562866 91.28300903 75.98812866 91.24050903 C77.96812866 96.52050903 79.94812866 101.80050903 81.98812866 107.24050903 C88.31090891 91.59930119 94.39187074 75.8701387 100.42562866 60.11550903 C101.7874883 56.56105298 103.14977344 53.00676254 104.51329041 49.45294189 C105.35343425 47.26312016 106.19261389 45.07292821 107.03071594 42.88232422 C107.5924929 41.41776291 107.5924929 41.41776291 108.1656189 39.9236145 C108.6590403 38.63510086 108.6590403 38.63510086 109.16242981 37.32055664 C109.98812866 35.24050903 109.98812866 35.24050903 110.98812866 33.24050903 C119.89812866 33.24050903 128.80812866 33.24050903 137.98812866 33.24050903 C140.58112075 39.07474124 143.07081971 44.85443351 145.34359741 50.80691528 C145.64695007 51.59588196 145.95030273 52.38484863 146.2628479 53.19772339 C147.23631693 55.731852 148.20620113 58.26733189 149.17562866 60.80300903 C149.84556831 62.55132442 150.51557194 64.2996153 151.18563843 66.04788208 C153.12443745 71.11032625 155.05711322 76.17509172 156.98812866 81.24050903 C157.25697876 81.94506226 157.52582886 82.64961548 157.80282593 83.3755188 C159.35054286 87.432135 160.89113382 91.49137402 162.42562866 95.55300903 C162.98189941 97.01686035 162.98189941 97.01686035 163.54940796 98.51028442 C163.87852173 99.38676636 164.2076355 100.26324829 164.54672241 101.16629028 C164.828302 101.9130603 165.10988159 102.65983032 165.3999939 103.42922974 C165.98812866 105.24050903 165.98812866 105.24050903 165.98812866 107.24050903 C166.64812866 107.24050903 167.30812866 107.24050903 167.98812866 107.24050903 C168.12783081 106.72746216 168.26753296 106.21441528 168.41146851 105.68582153 C170.7452562 97.51326508 173.73501925 89.59590615 176.7137146 81.6423645 C177.62107172 79.21929736 178.52371994 76.79451508 179.42562866 74.36941528 C180.00088055 72.82634624 180.57639179 71.28337386 181.15219116 69.74050903 C181.55687119 68.65467529 181.55687119 68.65467529 181.96972656 67.54690552 C183.87105757 62.47465121 183.87105757 62.47465121 184.98812866 60.24050903 C194.22812866 60.24050903 203.46812866 60.24050903 212.98812866 60.24050903 C209.6123248 70.36792061 209.6123248 70.36792061 208.20492554 74.07449341 C207.88539413 74.91846176 207.56586273 75.76243011 207.23664856 76.63197327 C206.89682449 77.52372757 206.55700043 78.41548187 206.20687866 79.33425903 C205.8406691 80.29920792 205.47445953 81.2641568 205.09715271 82.25834656 C203.89632836 85.41990261 202.69246962 88.58029103 201.48812866 91.74050903 C201.07505463 92.82588959 200.66198059 93.91127014 200.23638916 95.02954102 C193.72358708 112.13965138 187.15800023 129.22920796 180.55062866 146.30300903 C180.1466687 147.34876099 179.74270874 148.39451294 179.32650757 149.47195435 C178.17581905 152.44915498 177.02196382 155.42510743 175.86703491 158.40066528 C175.5323671 159.26736343 175.19769928 160.13406158 174.85289001 161.02702332 C172.72051544 166.50573462 170.42357657 171.88968804 167.98812866 177.24050903 C164.98812866 176.24050903 164.98812866 176.24050903 164.0718689 174.67240906 C163.81607056 173.99048996 163.56027222 173.30857086 163.29672241 172.60598755 C162.99721176 171.82465454 162.69770111 171.04332153 162.38911438 170.23831177 C162.07116409 169.37407593 161.75321381 168.50984009 161.42562866 167.61941528 C160.90960838 166.25913208 160.90960838 166.25913208 160.38316345 164.87136841 C159.24079591 161.85249618 158.1145817 158.82785173 156.98812866 155.80300903 C156.19619134 153.70159649 155.4031244 151.60060933 154.60897827 149.50003052 C152.93153765 145.05879423 151.26022129 140.61531976 149.59310913 136.17019653 C146.97522893 129.19641721 144.33072617 122.23293263 141.67953491 115.27175903 C141.24805145 114.13866806 140.81656799 113.00557709 140.37200928 111.83815002 C139.5168053 109.59251999 138.66155092 107.34690915 137.8062439 105.10131836 C135.80247758 99.83773047 133.80304725 94.5724999 131.80453491 89.30691528 C131.46152847 88.40360474 131.11852203 87.50029419 130.76512146 86.5696106 C128.8276753 81.46427415 126.90202312 76.35472247 124.98812866 71.24050903 C122.15490998 77.44992254 119.57806587 83.72127847 117.15219116 90.09988403 C116.6175827 91.49664116 116.6175827 91.49664116 116.07217407 92.9216156 C114.9164152 95.9435406 113.76439707 98.96687066 112.61312866 101.99050903 C111.81384578 104.08744564 111.01452904 106.18436934 110.21517944 108.28128052 C108.9978205 111.47527425 107.7808432 114.66941048 106.56512451 117.86402893 C104.2996099 123.81429262 102.01983131 129.75868079 99.72009277 135.69580078 C98.40247914 139.09983469 97.09242424 142.50674674 95.78372192 145.91421509 C95.17393233 147.49652265 94.56073366 149.07752098 93.94400024 150.65713501 C93.09272715 152.83905811 92.25390325 155.02538692 91.41781616 157.21316528 C90.94585815 158.43269897 90.47390015 159.65223267 89.98764038 160.90872192 C88.99517428 164.21702308 88.78474601 166.81079734 88.98812866 170.24050903 C87.99812866 170.24050903 87.00812866 170.24050903 85.98812866 170.24050903 C85.32812866 172.55050903 84.66812866 174.86050903 83.98812866 177.24050903 C82.66812866 176.91050903 81.34812866 176.58050903 79.98812866 176.24050903 C79.65812866 174.26050903 79.32812866 172.28050903 78.98812866 170.24050903 C78.41698617 170.24143083 77.84584368 170.24235262 77.25739384 170.24330235 C63.37897689 170.2653586 49.500563 170.28185732 35.6221323 170.29232121 C28.91070998 170.29748392 22.19929934 170.30452616 15.48788452 170.31594849 C9.0169913 170.32677468 2.54611024 170.3327853 -3.92479134 170.33538628 C-6.39966079 170.33724101 -8.87452954 170.34086254 -11.34939384 170.34623909 C-14.80257507 170.35344596 -18.25570535 170.35450012 -21.70889282 170.35403442 C-22.74322952 170.3576297 -23.77756622 170.36122498 -24.84324646 170.3649292 C-25.77859222 170.36355453 -26.71393799 170.36217987 -27.67762756 170.36076355 C-28.49525794 170.36168534 -29.31288832 170.36260714 -30.15529537 170.36355686 C-32.01187134 170.24050903 -32.01187134 170.24050903 -33.01187134 169.24050903 C-33.10852101 167.29155944 -33.13374254 165.33905448 -33.13212585 163.38771057 C-33.13350052 162.11579865 -33.13487518 160.84388672 -33.1362915 159.53343201 C-33.13275189 158.11083961 -33.12911707 156.68824745 -33.12539673 155.26565552 C-33.12511486 153.77784222 -33.12527257 152.29002879 -33.12583923 150.80221558 C-33.12612724 146.75073903 -33.12023001 142.69929184 -33.11326528 138.64782214 C-33.10703226 134.41838907 -33.10642798 130.18895539 -33.10523987 125.95951843 C-33.1021264 117.94491182 -33.0939128 109.93031877 -33.08389038 101.91571814 C-33.07272973 92.79374219 -33.06721891 83.67176561 -33.06219494 74.54978454 C-33.0517302 55.78001812 -33.03393004 37.01026516 -33.01187134 18.24050903 C-24.10187134 18.24050903 -15.19187134 18.24050903 -6.01187134 18.24050903 C-6.01187134 19.23050903 -6.01187134 20.22050903 -6.01187134 21.24050903 C-13.93187134 21.24050903 -21.85187134 21.24050903 -30.01187134 21.24050903 C-30.01187134 69.42050903 -30.01187134 117.60050903 -30.01187134 167.24050903 C5.29812866 167.24050903 40.60812866 167.24050903 76.98812866 167.24050903 C67.79812639 143.58822522 67.79812639 143.58822522 58.55844116 119.95535278 C56.78109741 115.42605591 56.78109741 115.42605591 55.95053101 113.30862427 C55.36879452 111.82850347 54.78533674 110.34905851 54.20053101 108.87014771 C53.31518441 106.62951084 52.43618263 104.3864777 51.55844116 102.14285278 C51.29612701 101.48381454 51.03381287 100.82477631 50.7635498 100.14576721 C49.67177739 97.33940469 48.98812866 95.28377861 48.98812866 92.24050903 C42.71812866 92.24050903 36.44812866 92.24050903 29.98812866 92.24050903 C29.98812866 111.71050903 29.98812866 131.18050903 29.98812866 151.24050903 C24.77000366 151.30238403 19.55187866 151.36425903 14.17562866 151.42800903 C12.53231567 151.45532104 10.88900269 151.48263306 9.19589233 151.51077271 C7.25806885 151.52201172 7.25806885 151.52201172 5.28109741 151.53347778 C4.26771301 151.55649963 4.26771301 151.55649963 3.2338562 151.57998657 C-1.51299397 151.58263696 -1.51299397 151.58263696 -3.69336224 150.08734989 C-5.56604383 147.46427746 -5.38659536 145.55792803 -5.38609314 142.35047913 C-5.39661461 140.50592888 -5.39661461 140.50592888 -5.40734863 138.62411499 C-5.39992077 137.25918416 -5.39218961 135.89425496 -5.38418579 134.52932739 C-5.3866134 133.09372189 -5.39033243 131.65811806 -5.39524841 130.22251892 C-5.40466447 126.32177018 -5.39522657 122.42127205 -5.38191628 118.52054286 C-5.37061382 114.44286856 -5.3747083 110.36520682 -5.37666321 106.28752136 C-5.37754647 99.44034725 -5.36645834 92.5932721 -5.34805298 85.74612427 C-5.3268764 77.82250934 -5.32337707 69.89903931 -5.32961494 61.97540182 C-5.33530317 54.36092201 -5.32966988 46.74649338 -5.31844139 39.13202095 C-5.31378907 35.8876304 -5.31292427 32.64327108 -5.31502724 29.3988781 C-5.31690645 25.58134308 -5.30883474 21.76395623 -5.29296684 17.946455 C-5.28871292 16.54276136 -5.28788084 15.13905272 -5.29065704 13.73535538 C-5.29386339 11.82474853 -5.28360067 9.91413298 -5.27256775 8.0035553 C-5.27051488 6.93264113 -5.26846201 5.86172697 -5.26634693 4.75836086 C-4.87675931 0.90367334 -3.78973044 0.30262395 0 0 Z " fill="#030303" transform="translate(192.01187133789063,140.75949096679688)"/>
<path d="M0 0 C1.98 0 3.96 0 6 0 C6.33 5.94 6.66 11.88 7 18 C5.081875 18.0825 3.16375 18.165 1.1875 18.25 C-0.43091797 18.31960938 -0.43091797 18.31960938 -2.08203125 18.390625 C-5 18 -5 18 -6.859375 16.171875 C-8.41887138 13.20242298 -8.48251113 11.30864772 -8 8 C-6.25 5.625 -6.25 5.625 -4 4 C-2.68 4 -1.36 4 0 4 C0 2.68 0 1.36 0 0 Z " fill="#1E1E1E" transform="translate(223,338)"/>
<path d="M0 0 C2.31 0 4.62 0 7 0 C8.32 3.3 9.64 6.6 11 10 C11.66 9.34 12.32 8.68 13 8 C12.64700993 4.55834679 11.95418308 2.93127462 10 0 C12.31 0 14.62 0 17 0 C18.32 3.3 19.64 6.6 21 10 C22.65 6.7 24.3 3.4 26 0 C27.32 0.33 28.64 0.66 30 1 C29.01 1.495 29.01 1.495 28 2 C26.77122046 4.31845195 25.61582566 6.62828688 24.5 9 C21.27027027 15.86486486 21.27027027 15.86486486 19 17 C17.02 13.535 17.02 13.535 15 10 C13.68 12.31 12.36 14.62 11 17 C10.34 17 9.68 17 9 17 C7.68718428 14.5418348 6.37473388 12.08347578 5.0625 9.625 C4.68931641 8.92632812 4.31613281 8.22765625 3.93164062 7.5078125 C1.11328125 2.2265625 1.11328125 2.2265625 0 0 Z " fill="#151515" transform="translate(248,338)"/>
<path d="M0 0 C0.33 3.63 0.66 7.26 1 11 C1.99 8.69 2.98 6.38 4 4 C5.32 4.33 6.64 4.66 8 5 C6.515 7.475 6.515 7.475 5 10 C5.7425 11.175625 5.7425 11.175625 6.5 12.375 C8 15 8 15 8 17 C8.66 17.33 9.32 17.66 10 18 C6.625 18.1875 6.625 18.1875 3 18 C2.34 17.01 1.68 16.02 1 15 C1 15.99 1 16.98 1 18 C-1.31 18 -3.62 18 -6 18 C-6 12.39 -6 6.78 -6 1 C-2 0 -2 0 0 0 Z " fill="#0C0C0C" transform="translate(320,338)"/>
<path d="M0 0 C1.28446919 2.56893838 1.32977144 4.76576337 1.5625 7.625 C1.64628906 8.62789063 1.73007813 9.63078125 1.81640625 10.6640625 C1.87699219 11.43492187 1.93757812 12.20578125 2 13 C-0.31 13 -2.62 13 -5 13 C-5 9.37 -5 5.74 -5 2 C-5.99 1.67 -6.98 1.34 -8 1 C-7.67 4.96 -7.34 8.92 -7 13 C-9.31 13 -11.62 13 -14 13 C-14 8.71 -14 4.42 -14 0 C-9.05313841 -0.76761645 -4.92057839 -1.32015518 0 0 Z " fill="#151515" transform="translate(210,343)"/>
<path d="M0 0 C0.66 0 1.32 0 2 0 C1.39124245 4.60416626 0.15277044 8.56483324 -1.5625 12.875 C-2.01753906 14.02742187 -2.47257812 15.17984375 -2.94140625 16.3671875 C-3.29074219 17.23601562 -3.64007813 18.10484375 -4 19 C-7.16074764 17.41962618 -7.54298175 14.23621052 -8.625 11.0625 C-8.85445313 10.41603516 -9.08390625 9.76957031 -9.3203125 9.10351562 C-11 4.28941127 -11 4.28941127 -11 2 C-10.28972656 1.93941406 -9.57945312 1.87882813 -8.84765625 1.81640625 C-7.46900391 1.69072266 -7.46900391 1.69072266 -6.0625 1.5625 C-5.14597656 1.48128906 -4.22945313 1.40007812 -3.28515625 1.31640625 C-1.03840268 1.23955024 -1.03840268 1.23955024 0 0 Z " fill="#F0F0F0" transform="translate(279,230)"/>
<path d="M0 0 C4.95 0 9.9 0 15 0 C14.67 1.32 14.34 2.64 14 4 C11.69 3.01 9.38 2.02 7 1 C7 3.31 7 5.62 7 8 C7.99 7.67 8.98 7.34 10 7 C9.67 7.99 9.34 8.98 9 10 C8.34 9.67 7.68 9.34 7 9 C7.33 11.97 7.66 14.94 8 18 C5.69 18 3.38 18 1 18 C1.01160156 16.86820312 1.02320313 15.73640625 1.03515625 14.5703125 C1.04453454 13.08854331 1.0536347 11.60677235 1.0625 10.125 C1.07087891 9.37863281 1.07925781 8.63226563 1.08789062 7.86328125 C1.20688084 3.80154422 1.20688084 3.80154422 0 0 Z " fill="#151515" transform="translate(167,338)"/>
<path d="M0 0 C0.99 0.33 1.98 0.66 3 1 C3 4.3 3 7.6 3 11 C3.66 11 4.32 11 5 11 C5 7.37 5 3.74 5 0 C6.32 0.33 7.64 0.66 9 1 C10.54163175 4.0832635 10.29747535 6.60878099 10 10 C8.4375 12 8.4375 12 6 13 C2.375 12.875 2.375 12.875 -1 12 C-3.31282587 8.53076119 -3.42478586 7.07794425 -3 3 C-1.5 1.125 -1.5 1.125 0 0 Z " fill="#0C0C0C" transform="translate(284,343)"/>
<path d="M0 0 C1.32 0 2.64 0 4 0 C4.33399254 2.97909414 4.6672256 5.95826976 5 8.9375 C5.09539062 9.78763672 5.19078125 10.63777344 5.2890625 11.51367188 C5.37929687 12.32255859 5.46953125 13.13144531 5.5625 13.96484375 C5.64628906 14.7137085 5.73007813 15.46257324 5.81640625 16.23413086 C6 18 6 18 6 19 C3.69 19 1.38 19 -1 19 C-1 14.71 -1 10.42 -1 6 C-0.34 6 0.32 6 1 6 C0.34 4.35 -0.32 2.7 -1 1 C-0.67 0.67 -0.34 0.34 0 0 Z " fill="#030303" transform="translate(187,337)"/>
<path d="M0 0 C8.3984375 -0.29296875 8.3984375 -0.29296875 11 0 C11.66 0.99 12.32 1.98 13 3 C10.69 2.67 8.38 2.34 6 2 C6.33 5.96 6.66 9.92 7 14 C4.69 14 2.38 14 0 14 C0 9.38 0 4.76 0 0 Z " fill="#020202" transform="translate(350,342)"/>
<path d="M0 0 C8.3984375 -0.29296875 8.3984375 -0.29296875 11 0 C11.66 0.99 12.32 1.98 13 3 C10.69 2.67 8.38 2.34 6 2 C6.33 5.96 6.66 9.92 7 14 C4.69 14 2.38 14 0 14 C0 9.38 0 4.76 0 0 Z " fill="#020202" transform="translate(298,342)"/>
<path d="M0 0 C1.98 0 3.96 0 6 0 C6.33 5.94 6.66 11.88 7 18 C5.02 18 3.04 18 1 18 C1.01160156 16.95199219 1.02320313 15.90398437 1.03515625 14.82421875 C1.04453655 13.44531428 1.0536365 12.06640789 1.0625 10.6875 C1.07087891 9.99720703 1.07925781 9.30691406 1.08789062 8.59570312 C1.10307906 5.4516975 1.00193327 3.00579981 0 0 Z " fill="#0D0D0D" transform="translate(223,338)"/>
<path d="M0 0 C1.32 0.66 2.64 1.32 4 2 C4 3.32 4 4.64 4 6 C1.36 6 -1.28 6 -4 6 C-3.34 7.65 -2.68 9.3 -2 11 C-0.35 10.67 1.3 10.34 3 10 C2.67 10.99 2.34 11.98 2 13 C-4.625 13.25 -4.625 13.25 -8 11 C-8.4375 7.5625 -8.4375 7.5625 -8 4 C-6 2.0625 -6 2.0625 -4 1 C-4 2.32 -4 3.64 -4 5 C-2.68 5 -1.36 5 0 5 C0 3.35 0 1.7 0 0 Z " fill="#171717" transform="translate(342,343)"/>
<path d="M0 0 C1.65 0 3.3 0 5 0 C5 3.96 5 7.92 5 12 C3.68 12 2.36 12 1 12 C1.01160156 11.30132812 1.02320313 10.60265625 1.03515625 9.8828125 C1.04417969 8.97273438 1.05320312 8.06265625 1.0625 7.125 C1.07410156 6.22007812 1.08570313 5.31515625 1.09765625 4.3828125 C1.16249257 1.9831415 1.16249257 1.9831415 0 0 Z " fill="#E4E4E4" transform="translate(285,342)"/>
<path d="M0 0 C1.32 0.33 2.64 0.66 4 1 C4 4.3 4 7.6 4 11 C2.68 11 1.36 11 0 11 C0 7.37 0 3.74 0 0 Z " fill="#E1E1E1" transform="translate(202,344)"/>
<path d="M0 0 C0.99 0 1.98 0 3 0 C3 3.63 3 7.26 3 11 C2.01 11 1.02 11 0 11 C-1.62651522 7.74696956 -1.11453156 4.60774398 -1 1 C-0.67 0.67 -0.34 0.34 0 0 Z " fill="#F6F6F6" transform="translate(221,344)"/>
<path d="M0 0 C0.99 0.33 1.98 0.66 3 1 C2.67 1.33 2.34 1.66 2 2 C1.76807135 3.51469448 1.58784762 5.03754562 1.4375 6.5625 C1.35371094 7.38878906 1.26992188 8.21507812 1.18359375 9.06640625 C1.12300781 9.70449219 1.06242187 10.34257812 1 11 C0.01 11 -0.98 11 -2 11 C-3.39935013 8.20129973 -3.25265405 6.09501208 -3 3 C-1.5 1.125 -1.5 1.125 0 0 Z " fill="#0C0C0C" transform="translate(284,343)"/>
<path d="M0 0 C1.875 0.3125 1.875 0.3125 4 1 C6 4 6 4 5.75 6.0625 C5 8 5 8 3 10 C0.59185923 6.48812804 -0.36629408 4.27343092 0 0 Z " fill="#EBEBEB" transform="translate(256,339)"/>
<path d="M0 0 C-0.33 1.98 -0.66 3.96 -1 6 C-2.32 6 -3.64 6 -5 6 C-5.33 5.01 -5.66 4.02 -6 3 C-8.35953094 5.35953094 -8.49141413 6.77895617 -9 10 C-9.33 10 -9.66 10 -10 10 C-10.3125 7.25 -10.3125 7.25 -10 4 C-6.84563621 0.57526217 -4.63891191 -0.53016136 0 0 Z " fill="#3E3E3E" transform="translate(343,342)"/>
<path d="M0 0 C1.32 0 2.64 0 4 0 C4.90413673 3.83724172 5.10576898 7.37502274 5.0625 11.3125 C5.05347656 12.38113281 5.04445312 13.44976562 5.03515625 14.55078125 C5.02355469 15.35902344 5.01195312 16.16726563 5 17 C4.67 17 4.34 17 4 17 C4 13.37 4 9.74 4 6 C3.01 6 2.02 6 1 6 C0.34 4.35 -0.32 2.7 -1 1 C-0.67 0.67 -0.34 0.34 0 0 Z " fill="#4D4D4D" transform="translate(187,337)"/>
<path d="M0 0 C0.99 0.33 1.98 0.66 3 1 C3.70211894 2.65204456 4.36971413 4.31923769 5 6 C5.66 6.33 6.32 6.66 7 7 C4.69 7 2.38 7 0 7 C-0.38133299 5.0085944 -0.71325582 3.00720923 -1 1 C-0.67 0.67 -0.34 0.34 0 0 Z " fill="#0B0B0B" transform="translate(323,349)"/>
<path d="M0 0 C1.79093191 -0.08086147 3.58289628 -0.13912702 5.375 -0.1875 C6.87160156 -0.23970703 6.87160156 -0.23970703 8.3984375 -0.29296875 C9.25695312 -0.19628906 10.11546875 -0.09960938 11 0 C11.66 0.99 12.32 1.98 13 3 C10.69 2.67 8.38 2.34 6 2 C6 5.3 6 8.6 6 12 C5.67 12 5.34 12 5 12 C5 8.37 5 4.74 5 1 C3.35 1 1.7 1 0 1 C0 0.67 0 0.34 0 0 Z " fill="#585858" transform="translate(350,342)"/>
<path d="M0 0 C1.79093191 -0.08086147 3.58289628 -0.13912702 5.375 -0.1875 C6.87160156 -0.23970703 6.87160156 -0.23970703 8.3984375 -0.29296875 C9.25695312 -0.19628906 10.11546875 -0.09960938 11 0 C11.66 0.99 12.32 1.98 13 3 C10.69 2.67 8.38 2.34 6 2 C6 5.3 6 8.6 6 12 C5.67 12 5.34 12 5 12 C5 8.37 5 4.74 5 1 C3.35 1 1.7 1 0 1 C0 0.67 0 0.34 0 0 Z " fill="#585858" transform="translate(298,342)"/>
<path d="M0 0 C4.95 0 9.9 0 15 0 C14.67 1.32 14.34 2.64 14 4 C13.01 3.34 12.02 2.68 11 2 C8.48415109 1.75849227 8.48415109 1.75849227 5.8125 1.875 C4.46091797 1.90207031 4.46091797 1.90207031 3.08203125 1.9296875 C2.05142578 1.96449219 2.05142578 1.96449219 1 2 C0.67 1.34 0.34 0.68 0 0 Z " fill="#2B2B2B" transform="translate(167,338)"/>
<path d="M0 0 C1.32 0.33 2.64 0.66 4 1 C2.16172132 4.15133488 0.24027294 7.11964908 -2 10 C-2.66 9.67 -3.32 9.34 -4 9 C-3.2884375 7.88625 -3.2884375 7.88625 -2.5625 6.75 C-1.22130673 4.38949985 -0.487688 2.63351523 0 0 Z " fill="#3A3A3A" transform="translate(324,342)"/>
<path d="M0 0 C0.33 0 0.66 0 1 0 C1.03738281 0.62648438 1.07476562 1.25296875 1.11328125 1.8984375 C1.17902344 2.71570313 1.24476563 3.53296875 1.3125 4.375 C1.37050781 5.18710937 1.42851562 5.99921875 1.48828125 6.8359375 C1.82990528 9.37921338 1.82990528 9.37921338 5 11 C2.69 10.67 0.38 10.34 -2 10 C-1.34 9.67 -0.68 9.34 0 9 C0 6.03 0 3.06 0 0 Z " fill="#565656" transform="translate(285,345)"/>
<path d="M0 0 C0.66 0.33 1.32 0.66 2 1 C2 2.32 2 3.64 2 5 C0.68 5 -0.64 5 -2 5 C-2 3.68 -2 2.36 -2 1 C-1.34 0.67 -0.68 0.34 0 0 Z " fill="#F0F0F0" transform="translate(340,343)"/>
</svg>
